REM MD5 ff2ef9fb745ef1a73200d5ba88b037b7
FILE "Euro Demo Germany 03-02 (Germany).bin" BINARY
  TRACK 01 MODE2/2352
    INDEX 01 00:00:00
  TRACK 02 AUDIO
    INDEX 00 38:43:48
    INDEX 01 38:45:48
  TRACK 03 AUDIO
    INDEX 00 40:04:48
    INDEX 01 40:06:48
  TRACK 04 AUDIO
    INDEX 00 42:00:44
    INDEX 01 42:05:00
  TRACK 05 AUDIO
    INDEX 00 43:47:25
    INDEX 01 43:49:25
  TRACK 06 AUDIO
    INDEX 00 48:10:03
    INDEX 01 48:12:03
REM LEADOUT 51:13:35
